<svg xmlns="http://www.w3.org/2000/svg" width="800" height="450" viewBox="0 0 800 450">
  <defs>
    <linearGradient id="bg" x1="0%" y1="0%" x2="100%" y2="100%">
      <stop offset="0%" style="stop-color:#0a0e17"/>
      <stop offset="100%" style="stop-color:#0f1520"/>
    </linearGradient>
    <linearGradient id="header" x1="0%" y1="0%" x2="100%" y2="0%">
      <stop offset="0%" style="stop-color:#64b5f6"/>
      <stop offset="100%" style="stop-color:#b388ff"/>
    </linearGradient>
    <filter id="glass">
      <feGaussianBlur in="SourceAlpha" stdDeviation="2"/>
      <feMerge><feMergeNode/><feMergeNode in="SourceGraphic"/></feMerge>
    </filter>
  </defs>
  <!-- Background -->
  <rect width="800" height="450" fill="url(#bg)"/>

  <!-- Grid lines -->
  <g opacity="0.03" stroke="#64b5f6">
    <line x1="0" y1="50" x2="800" y2="50"/><line x1="0" y1="100" x2="800" y2="100"/>
    <line x1="0" y1="150" x2="800" y2="150"/><line x1="0" y1="200" x2="800" y2="200"/>
    <line x1="0" y1="250" x2="800" y2="250"/><line x1="0" y1="300" x2="800" y2="300"/>
    <line x1="0" y1="350" x2="800" y2="350"/><line x1="0" y1="400" x2="800" y2="400"/>
    <line x1="50" y1="0" x2="50" y2="450"/><line x1="150" y1="0" x2="150" y2="450"/>
    <line x1="250" y1="0" x2="250" y2="450"/><line x1="350" y1="0" x2="350" y2="450"/>
    <line x1="450" y1="0" x2="450" y2="450"/><line x1="550" y1="0" x2="550" y2="450"/>
    <line x1="650" y1="0" x2="650" y2="450"/><line x1="750" y1="0" x2="750" y2="450"/>
  </g>

  <!-- Header -->
  <rect x="0" y="0" width="800" height="42" fill="rgba(10,14,23,0.85)" opacity="0.9"/>
  <line x1="0" y1="42" x2="800" y2="42" stroke="rgba(100,140,255,0.08)" stroke-width="1"/>
  <text x="20" y="28" font-family="Inter,sans-serif" font-weight="700" font-size="14" fill="url(#header)">HERMES COMMAND CENTER</text>
  <text x="170" y="28" font-family="Inter,sans-serif" font-size="10" fill="#5a6380">v3</text>

  <!-- Tab bar -->
  <rect x="0" y="42" width="800" height="34" fill="rgba(10,14,23,0.6)" opacity="0.9"/>
  <line x1="0" y1="76" x2="800" y2="76" stroke="rgba(100,140,255,0.08)" stroke-width="1"/>
  <text x="20" y="64" font-family="Inter,sans-serif" font-size="11" font-weight="600" fill="#64b5f6">概览</text>
  <line x1="20" y1="74" x2="54" y2="74" stroke="#64b5f6" stroke-width="2"/>
  <text x="80" y="64" font-family="Inter,sans-serif" font-size="11" fill="#5a6380">服务</text>
  <text x="140" y="64" font-family="Inter,sans-serif" font-size="11" fill="#5a6380">日志</text>
  <text x="200" y="64" font-family="Inter,sans-serif" font-size="11" fill="#5a6380">模型</text>
  <text x="260" y="64" font-family="Inter,sans-serif" font-size="11" fill="#5a6380">会话</text>

  <!-- Status Cards Row 1 -->
  <rect x="20" y="92" width="180" height="80" rx="8" fill="rgba(18,25,45,0.75)" stroke="rgba(100,140,255,0.08)" stroke-width="1"/>
  <text x="28" y="114" font-family="Inter,sans-serif" font-size="10" fill="#8892b0">CPU</text>
  <rect x="28" y="120" width="100" height="4" rx="2" fill="rgba(0,230,118,0.15)"/>
  <rect x="28" y="120" width="65" height="4" rx="2" fill="#00e676"/>
  <text x="135" y="124" font-family="JetBrains Mono,monospace" font-size="10" fill="#00e676">23%</text>
  <text x="28" y="150" font-family="Inter,sans-serif" font-size="10" fill="#8892b0">内存</text>
  <rect x="28" y="156" width="100" height="4" rx="2" fill="rgba(100,181,246,0.15)"/>
  <rect x="28" y="156" width="78" height="4" rx="2" fill="#64b5f6"/>
  <text x="135" y="160" font-family="JetBrains Mono,monospace" font-size="10" fill="#64b5f6">46%</text>

  <rect x="215" y="92" width="180" height="80" rx="8" fill="rgba(18,25,45,0.75)" stroke="rgba(100,140,255,0.08)" stroke-width="1"/>
  <text x="223" y="114" font-family="Inter,sans-serif" font-size="10" fill="#8892b0">磁盘</text>
  <rect x="223" y="120" width="100" height="4" rx="2" fill="rgba(255,213,79,0.15)"/>
  <rect x="223" y="120" width="55" height="4" rx="2" fill="#ffd54f"/>
  <text x="330" y="124" font-family="JetBrains Mono,monospace" font-size="10" fill="#ffd54f">38%</text>
  <text x="223" y="150" font-family="Inter,sans-serif" font-size="10" fill="#8892b0">网络</text>
  <text x="223" y="165" font-family="JetBrains Mono,monospace" font-size="10" fill="#64b5f6">↓ 1.2 MB/s  ↑ 340 KB/s</text>

  <rect x="410" y="92" width="180" height="80" rx="8" fill="rgba(18,25,45,0.75)" stroke="rgba(100,140,255,0.08)" stroke-width="1"/>
  <text x="418" y="114" font-family="Inter,sans-serif" font-size="10" fill="#8892b0">Hermes 状态</text>
  <text x="418" y="135" font-family="Inter,sans-serif" font-size="11" fill="#00e676">● 运行中</text>
  <text x="418" y="155" font-family="JetBrains Mono,monospace" font-size="10" fill="#5a6380">PID 1395129</text>
  <text x="418" y="165" font-family="JetBrains Mono,monospace" font-size="10" fill="#5a6380">运行 23h</text>

  <rect x="605" y="92" width="175" height="80" rx="8" fill="rgba(18,25,45,0.75)" stroke="rgba(100,140,255,0.08)" stroke-width="1"/>
  <text x="613" y="114" font-family="Inter,sans-serif" font-size="10" fill="#8892b0">今日 Token</text>
  <text x="613" y="140" font-family="JetBrains Mono,monospace" font-size="16" font-weight="600" fill="#b388ff">142.3K</text>
  <text x="613" y="158" font-family="Inter,sans-serif" font-size="10" fill="#5a6380">≈ ¥0.41</text>

  <!-- Row 2: Charts and Recent Sessions -->
  <rect x="20" y="190" width="380" height="120" rx="8" fill="rgba(18,25,45,0.75)" stroke="rgba(100,140,255,0.08)" stroke-width="1"/>
  <text x="28" y="212" font-family="Inter,sans-serif" font-size="10" fill="#8892b0">近 7 天 Token 用量</text>
  <!-- Simple bar chart -->
  <rect x="28" y="220" width="30" height="25" rx="2" fill="rgba(100,181,246,0.4)"/>
  <rect x="28" y="220" width="30" height="18" rx="2" fill="#64b5f6"/>
  <rect x="66" y="220" width="30" height="25" rx="2" fill="rgba(100,181,246,0.4)"/>
  <rect x="66" y="220" width="30" height="22" rx="2" fill="#64b5f6"/>
  <rect x="104" y="220" width="30" height="25" rx="2" fill="rgba(100,181,246,0.4)"/>
  <rect x="104" y="220" width="30" height="15" rx="2" fill="#64b5f6"/>
  <rect x="142" y="220" width="30" height="25" rx="2" fill="rgba(100,181,246,0.4)"/>
  <rect x="142" y="220" width="30" height="20" rx="2" fill="#64b5f6"/>
  <rect x="180" y="220" width="30" height="25" rx="2" fill="rgba(100,181,246,0.4)"/>
  <rect x="180" y="220" width="30" height="24" rx="2" fill="#64b5f6"/>
  <rect x="218" y="220" width="30" height="25" rx="2" fill="rgba(100,181,246,0.4)"/>
  <rect x="218" y="220" width="30" height="19" rx="2" fill="#64b5f6"/>
  <rect x="256" y="220" width="30" height="25" rx="2" fill="rgba(179,136,255,0.4)"/>
  <rect x="256" y="220" width="30" height="25" rx="2" fill="#b388ff"/>
  <text x="28" y="270" font-family="JetBrains Mono,monospace" font-size="8" fill="#5a6380">周一</text>
  <text x="66" y="270" font-family="JetBrains Mono,monospace" font-size="8" fill="#5a6380">周二</text>
  <text x="104" y="270" font-family="JetBrains Mono,monospace" font-size="8" fill="#5a6380">周三</text>
  <text x="142" y="270" font-family="JetBrains Mono,monospace" font-size="8" fill="#5a6380">周四</text>
  <text x="180" y="270" font-family="JetBrains Mono,monospace" font-size="8" fill="#5a6380">周五</text>
  <text x="218" y="270" font-family="JetBrains Mono,monospace" font-size="8" fill="#5a6380">周六</text>
  <text x="256" y="270" font-family="JetBrains Mono,monospace" font-size="8" fill="#5a6380">周日</text>

  <!-- Recent Sessions -->
  <rect x="415" y="190" width="365" height="120" rx="8" fill="rgba(18,25,45,0.75)" stroke="rgba(100,140,255,0.08)" stroke-width="1"/>
  <text x="423" y="212" font-family="Inter,sans-serif" font-size="10" fill="#8892b0">最近会话</text>
  <rect x="423" y="222" width="345" height="22" rx="4" fill="rgba(0,230,118,0.05)"/>
  <circle cx="433" cy="233" r="3" fill="#00e676"/>
  <text x="442" y="237" font-family="Inter,sans-serif" font-size="9" fill="#e8edf5">网站优化 · deepseek-v4-pro</text>
  <text x="720" y="237" font-family="JetBrains Mono,monospace" font-size="8" fill="#5a6380">2min ago</text>

  <rect x="423" y="248" width="345" height="22" rx="4" fill="rgba(255,213,79,0.05)"/>
  <circle cx="433" cy="259" r="3" fill="#ffd54f"/>
  <text x="442" y="263" font-family="Inter,sans-serif" font-size="9" fill="#e8edf5">模型配置切换 · claude-opus</text>
  <text x="720" y="263" font-family="JetBrains Mono,monospace" font-size="8" fill="#5a6380">15min ago</text>

  <rect x="423" y="274" width="345" height="22" rx="4" fill="rgba(179,136,255,0.05)"/>
  <circle cx="433" cy="285" r="3" fill="#b388ff"/>
  <text x="442" y="289" font-family="Inter,sans-serif" font-size="9" fill="#e8edf5">系统监控检查 · deepseek-v4-flash</text>
  <text x="720" y="289" font-family="JetBrains Mono,monospace" font-size="8" fill="#5a6380">1h ago</text>

  <!-- Footer: System Info -->
  <rect x="20" y="325" width="760" height="50" rx="8" fill="rgba(18,25,45,0.75)" stroke="rgba(100,140,255,0.08)" stroke-width="1"/>
  <text x="28" y="347" font-family="Inter,sans-serif" font-size="10" fill="#8892b0">系统信息</text>
  <text x="28" y="365" font-family="JetBrains Mono,monospace" font-size="9" fill="#5a6380">Ubuntu 24.04 · 8 vCPU · 32 GB · Hermes v0.14.0 · Uptime 12d</text>

  <!-- Version footer -->
  <text x="400" y="435" font-family="Inter,sans-serif" font-size="9" fill="#5a6380" text-anchor="middle">Hermes CC v3 · 综合监控操作台</text>
</svg>
